<svg xmlns="http://www.w3.org/2000/svg" width="800" height="280" viewBox="0 0 800 280" role="img">
  <title>rswlljms's contribution activity — last 31 days</title>
  <defs>
    <linearGradient id="areaFill" x1="0" y1="0" x2="0" y2="1">
      <stop offset="0%" stop-color="#38bdf8" stop-opacity="0.45"/>
      <stop offset="100%" stop-color="#38bdf8" stop-opacity="0.04"/>
    </linearGradient>
  </defs>
  <rect x="0.5" y="0.5" width="799" height="279" rx="10" fill="#1a1b27" stroke="#38bdf8" stroke-opacity="0.4"/>
  <text x="24" y="32" font-family="-apple-system,BlinkMacSystemFont,'Segoe UI',Helvetica,Arial,sans-serif" font-size="15" font-weight="700" fill="#38bdf8">rswlljms's Contribution Activity</text>
  <text x="24" y="50" font-family="-apple-system,BlinkMacSystemFont,'Segoe UI',Helvetica,Arial,sans-serif" font-size="11" fill="#9aa0b4">Last 31 days · 109 contributions · peak 9/day</text>
  
    <line x1="48" y1="242.0" x2="780" y2="242.0" stroke="#2b2f45" stroke-width="1" stroke-dasharray="none"/>
    <text x="40" y="246.0" text-anchor="end" font-family="-apple-system,BlinkMacSystemFont,'Segoe UI',Helvetica,Arial,sans-serif" font-size="10" fill="#7a7f99">0</text>
    <line x1="48" y1="144.2" x2="780" y2="144.2" stroke="#2b2f45" stroke-width="1" stroke-dasharray="4 4"/>
    <text x="40" y="148.2" text-anchor="end" font-family="-apple-system,BlinkMacSystemFont,'Segoe UI',Helvetica,Arial,sans-serif" font-size="10" fill="#7a7f99">5</text>
    <line x1="48" y1="66.0" x2="780" y2="66.0" stroke="#2b2f45" stroke-width="1" stroke-dasharray="4 4"/>
    <text x="40" y="70.0" text-anchor="end" font-family="-apple-system,BlinkMacSystemFont,'Segoe UI',Helvetica,Arial,sans-serif" font-size="10" fill="#7a7f99">9</text>
  <path d="M 48.00 242.00 C 52.07 225.70, 64.27 150.74, 72.40 144.22 C 80.53 137.70, 88.67 202.89, 96.80 202.89 C 104.93 202.89, 113.07 150.74, 121.20 144.22 C 129.33 137.70, 137.47 167.04, 145.60 163.78 C 153.73 160.52, 161.87 124.67, 170.00 124.67 C 178.13 124.67, 186.27 163.78, 194.40 163.78 C 202.53 163.78, 210.67 118.15, 218.80 124.67 C 226.93 131.19, 235.07 189.85, 243.20 202.89 C 251.33 215.93, 259.47 209.41, 267.60 202.89 C 275.73 196.37, 283.87 167.04, 292.00 163.78 C 300.13 160.52, 308.27 183.33, 316.40 183.33 C 324.53 183.33, 332.67 160.52, 340.80 163.78 C 348.93 167.04, 357.07 196.37, 365.20 202.89 C 373.33 209.41, 381.47 212.67, 389.60 202.89 C 397.73 193.11, 405.87 157.26, 414.00 144.22 C 422.13 131.19, 430.27 118.15, 438.40 124.67 C 446.53 131.19, 454.67 176.81, 462.80 183.33 C 470.93 189.85, 479.07 167.04, 487.20 163.78 C 495.33 160.52, 503.47 180.07, 511.60 163.78 C 519.73 147.48, 527.87 56.22, 536.00 66.00 C 544.13 75.78, 552.27 206.15, 560.40 222.44 C 568.53 238.74, 576.67 163.78, 584.80 163.78 C 592.93 163.78, 601.07 219.19, 609.20 222.44 C 617.33 225.70, 625.47 196.37, 633.60 183.33 C 641.73 170.30, 649.87 147.48, 658.00 144.22 C 666.13 140.96, 674.27 150.74, 682.40 163.78 C 690.53 176.81, 698.67 215.93, 706.80 222.44 C 714.93 228.96, 723.07 215.93, 731.20 202.89 C 739.33 189.85, 747.47 140.96, 755.60 144.22 C 763.73 147.48, 775.93 209.41, 780.00 222.44 L 780.00 242.00 L 48.00 242.00 Z" fill="url(#areaFill)"/>
  <path d="M 48.00 242.00 C 52.07 225.70, 64.27 150.74, 72.40 144.22 C 80.53 137.70, 88.67 202.89, 96.80 202.89 C 104.93 202.89, 113.07 150.74, 121.20 144.22 C 129.33 137.70, 137.47 167.04, 145.60 163.78 C 153.73 160.52, 161.87 124.67, 170.00 124.67 C 178.13 124.67, 186.27 163.78, 194.40 163.78 C 202.53 163.78, 210.67 118.15, 218.80 124.67 C 226.93 131.19, 235.07 189.85, 243.20 202.89 C 251.33 215.93, 259.47 209.41, 267.60 202.89 C 275.73 196.37, 283.87 167.04, 292.00 163.78 C 300.13 160.52, 308.27 183.33, 316.40 183.33 C 324.53 183.33, 332.67 160.52, 340.80 163.78 C 348.93 167.04, 357.07 196.37, 365.20 202.89 C 373.33 209.41, 381.47 212.67, 389.60 202.89 C 397.73 193.11, 405.87 157.26, 414.00 144.22 C 422.13 131.19, 430.27 118.15, 438.40 124.67 C 446.53 131.19, 454.67 176.81, 462.80 183.33 C 470.93 189.85, 479.07 167.04, 487.20 163.78 C 495.33 160.52, 503.47 180.07, 511.60 163.78 C 519.73 147.48, 527.87 56.22, 536.00 66.00 C 544.13 75.78, 552.27 206.15, 560.40 222.44 C 568.53 238.74, 576.67 163.78, 584.80 163.78 C 592.93 163.78, 601.07 219.19, 609.20 222.44 C 617.33 225.70, 625.47 196.37, 633.60 183.33 C 641.73 170.30, 649.87 147.48, 658.00 144.22 C 666.13 140.96, 674.27 150.74, 682.40 163.78 C 690.53 176.81, 698.67 215.93, 706.80 222.44 C 714.93 228.96, 723.07 215.93, 731.20 202.89 C 739.33 189.85, 747.47 140.96, 755.60 144.22 C 763.73 147.48, 775.93 209.41, 780.00 222.44" fill="none" stroke="#38bdf8" stroke-width="2.5" stroke-linejoin="round" stroke-linecap="round"/>
  <circle cx="48.0" cy="242.0" r="2.6" fill="#1a1b27" stroke="#38bdf8" stroke-width="1.6"><title>2026-08-30: 0</title></circle>
    <circle cx="72.4" cy="144.2" r="2.6" fill="#1a1b27" stroke="#38bdf8" stroke-width="1.6"><title>2026-08-31: 5</title></circle>
    <circle cx="96.8" cy="202.9" r="2.6" fill="#1a1b27" stroke="#38bdf8" stroke-width="1.6"><title>2026-09-01: 2</title></circle>
    <circle cx="121.2" cy="144.2" r="2.6" fill="#1a1b27" stroke="#38bdf8" stroke-width="1.6"><title>2026-09-02: 5</title></circle>
    <circle cx="145.6" cy="163.8" r="2.6" fill="#1a1b27" stroke="#38bdf8" stroke-width="1.6"><title>2026-09-03: 4</title></circle>
    <circle cx="170.0" cy="124.7" r="2.6" fill="#1a1b27" stroke="#38bdf8" stroke-width="1.6"><title>2026-09-04: 6</title></circle>
    <circle cx="194.4" cy="163.8" r="2.6" fill="#1a1b27" stroke="#38bdf8" stroke-width="1.6"><title>2026-09-05: 4</title></circle>
    <circle cx="218.8" cy="124.7" r="2.6" fill="#1a1b27" stroke="#38bdf8" stroke-width="1.6"><title>2026-09-06: 6</title></circle>
    <circle cx="243.2" cy="202.9" r="2.6" fill="#1a1b27" stroke="#38bdf8" stroke-width="1.6"><title>2026-09-07: 2</title></circle>
    <circle cx="267.6" cy="202.9" r="2.6" fill="#1a1b27" stroke="#38bdf8" stroke-width="1.6"><title>2026-09-08: 2</title></circle>
    <circle cx="292.0" cy="163.8" r="2.6" fill="#1a1b27" stroke="#38bdf8" stroke-width="1.6"><title>2026-09-09: 4</title></circle>
    <circle cx="316.4" cy="183.3" r="2.6" fill="#1a1b27" stroke="#38bdf8" stroke-width="1.6"><title>2026-09-10: 3</title></circle>
    <circle cx="340.8" cy="163.8" r="2.6" fill="#1a1b27" stroke="#38bdf8" stroke-width="1.6"><title>2026-09-11: 4</title></circle>
    <circle cx="365.2" cy="202.9" r="2.6" fill="#1a1b27" stroke="#38bdf8" stroke-width="1.6"><title>2026-09-12: 2</title></circle>
    <circle cx="389.6" cy="202.9" r="2.6" fill="#1a1b27" stroke="#38bdf8" stroke-width="1.6"><title>2026-09-13: 2</title></circle>
    <circle cx="414.0" cy="144.2" r="2.6" fill="#1a1b27" stroke="#38bdf8" stroke-width="1.6"><title>2026-09-14: 5</title></circle>
    <circle cx="438.4" cy="124.7" r="2.6" fill="#1a1b27" stroke="#38bdf8" stroke-width="1.6"><title>2026-09-15: 6</title></circle>
    <circle cx="462.8" cy="183.3" r="2.6" fill="#1a1b27" stroke="#38bdf8" stroke-width="1.6"><title>2026-09-16: 3</title></circle>
    <circle cx="487.2" cy="163.8" r="2.6" fill="#1a1b27" stroke="#38bdf8" stroke-width="1.6"><title>2026-09-17: 4</title></circle>
    <circle cx="511.6" cy="163.8" r="2.6" fill="#1a1b27" stroke="#38bdf8" stroke-width="1.6"><title>2026-09-18: 4</title></circle>
    <circle cx="536.0" cy="66.0" r="2.6" fill="#1a1b27" stroke="#38bdf8" stroke-width="1.6"><title>2026-09-19: 9</title></circle>
    <circle cx="560.4" cy="222.4" r="2.6" fill="#1a1b27" stroke="#38bdf8" stroke-width="1.6"><title>2026-09-20: 1</title></circle>
    <circle cx="584.8" cy="163.8" r="2.6" fill="#1a1b27" stroke="#38bdf8" stroke-width="1.6"><title>2026-09-21: 4</title></circle>
    <circle cx="609.2" cy="222.4" r="2.6" fill="#1a1b27" stroke="#38bdf8" stroke-width="1.6"><title>2026-09-22: 1</title></circle>
    <circle cx="633.6" cy="183.3" r="2.6" fill="#1a1b27" stroke="#38bdf8" stroke-width="1.6"><title>2026-09-23: 3</title></circle>
    <circle cx="658.0" cy="144.2" r="2.6" fill="#1a1b27" stroke="#38bdf8" stroke-width="1.6"><title>2026-09-24: 5</title></circle>
    <circle cx="682.4" cy="163.8" r="2.6" fill="#1a1b27" stroke="#38bdf8" stroke-width="1.6"><title>2026-09-25: 4</title></circle>
    <circle cx="706.8" cy="222.4" r="2.6" fill="#1a1b27" stroke="#38bdf8" stroke-width="1.6"><title>2026-09-26: 1</title></circle>
    <circle cx="731.2" cy="202.9" r="2.6" fill="#1a1b27" stroke="#38bdf8" stroke-width="1.6"><title>2026-09-27: 2</title></circle>
    <circle cx="755.6" cy="144.2" r="2.6" fill="#1a1b27" stroke="#38bdf8" stroke-width="1.6"><title>2026-09-28: 5</title></circle>
    <circle cx="780.0" cy="222.4" r="2.6" fill="#1a1b27" stroke="#38bdf8" stroke-width="1.6"><title>2026-09-29: 1</title></circle>
  <text x="48" y="266" font-family="-apple-system,BlinkMacSystemFont,'Segoe UI',Helvetica,Arial,sans-serif" font-size="10" fill="#7a7f99">Aug 30, 2026</text>
  <text x="400" y="266" text-anchor="middle" font-family="-apple-system,BlinkMacSystemFont,'Segoe UI',Helvetica,Arial,sans-serif" font-size="10" fill="#7a7f99">Sep 14, 2026</text>
  <text x="780" y="266" text-anchor="end" font-family="-apple-system,BlinkMacSystemFont,'Segoe UI',Helvetica,Arial,sans-serif" font-size="10" fill="#7a7f99">Sep 29, 2026</text>
</svg>
