<svg xmlns="http://www.w3.org/2000/svg" width="800" height="280" viewBox="0 0 800 280" role="img">
  <title>rswlljms's contribution activity — last 31 days</title>
  <defs>
    <linearGradient id="areaFill" x1="0" y1="0" x2="0" y2="1">
      <stop offset="0%" stop-color="#38bdf8" stop-opacity="0.45"/>
      <stop offset="100%" stop-color="#38bdf8" stop-opacity="0.04"/>
    </linearGradient>
  </defs>
  <rect x="0.5" y="0.5" width="799" height="279" rx="10" fill="#1a1b27" stroke="#38bdf8" stroke-opacity="0.4"/>
  <text x="24" y="32" font-family="-apple-system,BlinkMacSystemFont,'Segoe UI',Helvetica,Arial,sans-serif" font-size="15" font-weight="700" fill="#38bdf8">rswlljms's Contribution Activity</text>
  <text x="24" y="50" font-family="-apple-system,BlinkMacSystemFont,'Segoe UI',Helvetica,Arial,sans-serif" font-size="11" fill="#9aa0b4">Last 31 days · 104 contributions · peak 9/day</text>
  
    <line x1="48" y1="242.0" x2="780" y2="242.0" stroke="#2b2f45" stroke-width="1" stroke-dasharray="none"/>
    <text x="40" y="246.0" text-anchor="end" font-family="-apple-system,BlinkMacSystemFont,'Segoe UI',Helvetica,Arial,sans-serif" font-size="10" fill="#7a7f99">0</text>
    <line x1="48" y1="144.2" x2="780" y2="144.2" stroke="#2b2f45" stroke-width="1" stroke-dasharray="4 4"/>
    <text x="40" y="148.2" text-anchor="end" font-family="-apple-system,BlinkMacSystemFont,'Segoe UI',Helvetica,Arial,sans-serif" font-size="10" fill="#7a7f99">5</text>
    <line x1="48" y1="66.0" x2="780" y2="66.0" stroke="#2b2f45" stroke-width="1" stroke-dasharray="4 4"/>
    <text x="40" y="70.0" text-anchor="end" font-family="-apple-system,BlinkMacSystemFont,'Segoe UI',Helvetica,Arial,sans-serif" font-size="10" fill="#7a7f99">9</text>
  <path d="M 48.00 222.44 C 52.07 225.70, 64.27 255.04, 72.40 242.00 C 80.53 228.96, 88.67 150.74, 96.80 144.22 C 104.93 137.70, 113.07 202.89, 121.20 202.89 C 129.33 202.89, 137.47 150.74, 145.60 144.22 C 153.73 137.70, 161.87 167.04, 170.00 163.78 C 178.13 160.52, 186.27 124.67, 194.40 124.67 C 202.53 124.67, 210.67 163.78, 218.80 163.78 C 226.93 163.78, 235.07 118.15, 243.20 124.67 C 251.33 131.19, 259.47 189.85, 267.60 202.89 C 275.73 215.93, 283.87 209.41, 292.00 202.89 C 300.13 196.37, 308.27 167.04, 316.40 163.78 C 324.53 160.52, 332.67 183.33, 340.80 183.33 C 348.93 183.33, 357.07 160.52, 365.20 163.78 C 373.33 167.04, 381.47 196.37, 389.60 202.89 C 397.73 209.41, 405.87 212.67, 414.00 202.89 C 422.13 193.11, 430.27 157.26, 438.40 144.22 C 446.53 131.19, 454.67 118.15, 462.80 124.67 C 470.93 131.19, 479.07 176.81, 487.20 183.33 C 495.33 189.85, 503.47 167.04, 511.60 163.78 C 519.73 160.52, 527.87 180.07, 536.00 163.78 C 544.13 147.48, 552.27 56.22, 560.40 66.00 C 568.53 75.78, 576.67 206.15, 584.80 222.44 C 592.93 238.74, 601.07 163.78, 609.20 163.78 C 617.33 163.78, 625.47 219.19, 633.60 222.44 C 641.73 225.70, 649.87 196.37, 658.00 183.33 C 666.13 170.30, 674.27 144.22, 682.40 144.22 C 690.53 144.22, 698.67 170.30, 706.80 183.33 C 714.93 196.37, 723.07 219.19, 731.20 222.44 C 739.33 225.70, 747.47 202.89, 755.60 202.89 C 763.73 202.89, 775.93 219.19, 780.00 222.44 L 780.00 242.00 L 48.00 242.00 Z" fill="url(#areaFill)"/>
  <path d="M 48.00 222.44 C 52.07 225.70, 64.27 255.04, 72.40 242.00 C 80.53 228.96, 88.67 150.74, 96.80 144.22 C 104.93 137.70, 113.07 202.89, 121.20 202.89 C 129.33 202.89, 137.47 150.74, 145.60 144.22 C 153.73 137.70, 161.87 167.04, 170.00 163.78 C 178.13 160.52, 186.27 124.67, 194.40 124.67 C 202.53 124.67, 210.67 163.78, 218.80 163.78 C 226.93 163.78, 235.07 118.15, 243.20 124.67 C 251.33 131.19, 259.47 189.85, 267.60 202.89 C 275.73 215.93, 283.87 209.41, 292.00 202.89 C 300.13 196.37, 308.27 167.04, 316.40 163.78 C 324.53 160.52, 332.67 183.33, 340.80 183.33 C 348.93 183.33, 357.07 160.52, 365.20 163.78 C 373.33 167.04, 381.47 196.37, 389.60 202.89 C 397.73 209.41, 405.87 212.67, 414.00 202.89 C 422.13 193.11, 430.27 157.26, 438.40 144.22 C 446.53 131.19, 454.67 118.15, 462.80 124.67 C 470.93 131.19, 479.07 176.81, 487.20 183.33 C 495.33 189.85, 503.47 167.04, 511.60 163.78 C 519.73 160.52, 527.87 180.07, 536.00 163.78 C 544.13 147.48, 552.27 56.22, 560.40 66.00 C 568.53 75.78, 576.67 206.15, 584.80 222.44 C 592.93 238.74, 601.07 163.78, 609.20 163.78 C 617.33 163.78, 625.47 219.19, 633.60 222.44 C 641.73 225.70, 649.87 196.37, 658.00 183.33 C 666.13 170.30, 674.27 144.22, 682.40 144.22 C 690.53 144.22, 698.67 170.30, 706.80 183.33 C 714.93 196.37, 723.07 219.19, 731.20 222.44 C 739.33 225.70, 747.47 202.89, 755.60 202.89 C 763.73 202.89, 775.93 219.19, 780.00 222.44" fill="none" stroke="#38bdf8" stroke-width="2.5" stroke-linejoin="round" stroke-linecap="round"/>
  <circle cx="48.0" cy="222.4" r="2.6" fill="#1a1b27" stroke="#38bdf8" stroke-width="1.6"><title>2026-08-29: 1</title></circle>
    <circle cx="72.4" cy="242.0" r="2.6" fill="#1a1b27" stroke="#38bdf8" stroke-width="1.6"><title>2026-08-30: 0</title></circle>
    <circle cx="96.8" cy="144.2" r="2.6" fill="#1a1b27" stroke="#38bdf8" stroke-width="1.6"><title>2026-08-31: 5</title></circle>
    <circle cx="121.2" cy="202.9" r="2.6" fill="#1a1b27" stroke="#38bdf8" stroke-width="1.6"><title>2026-09-01: 2</title></circle>
    <circle cx="145.6" cy="144.2" r="2.6" fill="#1a1b27" stroke="#38bdf8" stroke-width="1.6"><title>2026-09-02: 5</title></circle>
    <circle cx="170.0" cy="163.8" r="2.6" fill="#1a1b27" stroke="#38bdf8" stroke-width="1.6"><title>2026-09-03: 4</title></circle>
    <circle cx="194.4" cy="124.7" r="2.6" fill="#1a1b27" stroke="#38bdf8" stroke-width="1.6"><title>2026-09-04: 6</title></circle>
    <circle cx="218.8" cy="163.8" r="2.6" fill="#1a1b27" stroke="#38bdf8" stroke-width="1.6"><title>2026-09-05: 4</title></circle>
    <circle cx="243.2" cy="124.7" r="2.6" fill="#1a1b27" stroke="#38bdf8" stroke-width="1.6"><title>2026-09-06: 6</title></circle>
    <circle cx="267.6" cy="202.9" r="2.6" fill="#1a1b27" stroke="#38bdf8" stroke-width="1.6"><title>2026-09-07: 2</title></circle>
    <circle cx="292.0" cy="202.9" r="2.6" fill="#1a1b27" stroke="#38bdf8" stroke-width="1.6"><title>2026-09-08: 2</title></circle>
    <circle cx="316.4" cy="163.8" r="2.6" fill="#1a1b27" stroke="#38bdf8" stroke-width="1.6"><title>2026-09-09: 4</title></circle>
    <circle cx="340.8" cy="183.3" r="2.6" fill="#1a1b27" stroke="#38bdf8" stroke-width="1.6"><title>2026-09-10: 3</title></circle>
    <circle cx="365.2" cy="163.8" r="2.6" fill="#1a1b27" stroke="#38bdf8" stroke-width="1.6"><title>2026-09-11: 4</title></circle>
    <circle cx="389.6" cy="202.9" r="2.6" fill="#1a1b27" stroke="#38bdf8" stroke-width="1.6"><title>2026-09-12: 2</title></circle>
    <circle cx="414.0" cy="202.9" r="2.6" fill="#1a1b27" stroke="#38bdf8" stroke-width="1.6"><title>2026-09-13: 2</title></circle>
    <circle cx="438.4" cy="144.2" r="2.6" fill="#1a1b27" stroke="#38bdf8" stroke-width="1.6"><title>2026-09-14: 5</title></circle>
    <circle cx="462.8" cy="124.7" r="2.6" fill="#1a1b27" stroke="#38bdf8" stroke-width="1.6"><title>2026-09-15: 6</title></circle>
    <circle cx="487.2" cy="183.3" r="2.6" fill="#1a1b27" stroke="#38bdf8" stroke-width="1.6"><title>2026-09-16: 3</title></circle>
    <circle cx="511.6" cy="163.8" r="2.6" fill="#1a1b27" stroke="#38bdf8" stroke-width="1.6"><title>2026-09-17: 4</title></circle>
    <circle cx="536.0" cy="163.8" r="2.6" fill="#1a1b27" stroke="#38bdf8" stroke-width="1.6"><title>2026-09-18: 4</title></circle>
    <circle cx="560.4" cy="66.0" r="2.6" fill="#1a1b27" stroke="#38bdf8" stroke-width="1.6"><title>2026-09-19: 9</title></circle>
    <circle cx="584.8" cy="222.4" r="2.6" fill="#1a1b27" stroke="#38bdf8" stroke-width="1.6"><title>2026-09-20: 1</title></circle>
    <circle cx="609.2" cy="163.8" r="2.6" fill="#1a1b27" stroke="#38bdf8" stroke-width="1.6"><title>2026-09-21: 4</title></circle>
    <circle cx="633.6" cy="222.4" r="2.6" fill="#1a1b27" stroke="#38bdf8" stroke-width="1.6"><title>2026-09-22: 1</title></circle>
    <circle cx="658.0" cy="183.3" r="2.6" fill="#1a1b27" stroke="#38bdf8" stroke-width="1.6"><title>2026-09-23: 3</title></circle>
    <circle cx="682.4" cy="144.2" r="2.6" fill="#1a1b27" stroke="#38bdf8" stroke-width="1.6"><title>2026-09-24: 5</title></circle>
    <circle cx="706.8" cy="183.3" r="2.6" fill="#1a1b27" stroke="#38bdf8" stroke-width="1.6"><title>2026-09-25: 3</title></circle>
    <circle cx="731.2" cy="222.4" r="2.6" fill="#1a1b27" stroke="#38bdf8" stroke-width="1.6"><title>2026-09-26: 1</title></circle>
    <circle cx="755.6" cy="202.9" r="2.6" fill="#1a1b27" stroke="#38bdf8" stroke-width="1.6"><title>2026-09-27: 2</title></circle>
    <circle cx="780.0" cy="222.4" r="2.6" fill="#1a1b27" stroke="#38bdf8" stroke-width="1.6"><title>2026-09-28: 1</title></circle>
  <text x="48" y="266" font-family="-apple-system,BlinkMacSystemFont,'Segoe UI',Helvetica,Arial,sans-serif" font-size="10" fill="#7a7f99">Aug 29, 2026</text>
  <text x="400" y="266" text-anchor="middle" font-family="-apple-system,BlinkMacSystemFont,'Segoe UI',Helvetica,Arial,sans-serif" font-size="10" fill="#7a7f99">Sep 13, 2026</text>
  <text x="780" y="266" text-anchor="end" font-family="-apple-system,BlinkMacSystemFont,'Segoe UI',Helvetica,Arial,sans-serif" font-size="10" fill="#7a7f99">Sep 28, 2026</text>
</svg>
