<svg xmlns="http://www.w3.org/2000/svg" width="800" height="280" viewBox="0 0 800 280" role="img">
  <title>rswlljms's contribution activity — last 31 days</title>
  <defs>
    <linearGradient id="areaFill" x1="0" y1="0" x2="0" y2="1">
      <stop offset="0%" stop-color="#38bdf8" stop-opacity="0.45"/>
      <stop offset="100%" stop-color="#38bdf8" stop-opacity="0.04"/>
    </linearGradient>
  </defs>
  <rect x="0.5" y="0.5" width="799" height="279" rx="10" fill="#1a1b27" stroke="#38bdf8" stroke-opacity="0.4"/>
  <text x="24" y="32" font-family="-apple-system,BlinkMacSystemFont,'Segoe UI',Helvetica,Arial,sans-serif" font-size="15" font-weight="700" fill="#38bdf8">rswlljms's Contribution Activity</text>
  <text x="24" y="50" font-family="-apple-system,BlinkMacSystemFont,'Segoe UI',Helvetica,Arial,sans-serif" font-size="11" fill="#9aa0b4">Last 31 days · 110 contributions · peak 8/day</text>
  
    <line x1="48" y1="242.0" x2="780" y2="242.0" stroke="#2b2f45" stroke-width="1" stroke-dasharray="none"/>
    <text x="40" y="246.0" text-anchor="end" font-family="-apple-system,BlinkMacSystemFont,'Segoe UI',Helvetica,Arial,sans-serif" font-size="10" fill="#7a7f99">0</text>
    <line x1="48" y1="154.0" x2="780" y2="154.0" stroke="#2b2f45" stroke-width="1" stroke-dasharray="4 4"/>
    <text x="40" y="158.0" text-anchor="end" font-family="-apple-system,BlinkMacSystemFont,'Segoe UI',Helvetica,Arial,sans-serif" font-size="10" fill="#7a7f99">4</text>
    <line x1="48" y1="66.0" x2="780" y2="66.0" stroke="#2b2f45" stroke-width="1" stroke-dasharray="4 4"/>
    <text x="40" y="70.0" text-anchor="end" font-family="-apple-system,BlinkMacSystemFont,'Segoe UI',Helvetica,Arial,sans-serif" font-size="10" fill="#7a7f99">8</text>
  <path d="M 48.00 176.00 C 52.07 179.67, 64.27 198.00, 72.40 198.00 C 80.53 198.00, 88.67 187.00, 96.80 176.00 C 104.93 165.00, 113.07 121.00, 121.20 132.00 C 129.33 143.00, 137.47 234.67, 145.60 242.00 C 153.73 249.33, 161.87 190.67, 170.00 176.00 C 178.13 161.33, 186.27 157.67, 194.40 154.00 C 202.53 150.33, 210.67 168.67, 218.80 154.00 C 226.93 139.33, 235.07 66.00, 243.20 66.00 C 251.33 66.00, 259.47 128.33, 267.60 154.00 C 275.73 179.67, 283.87 205.33, 292.00 220.00 C 300.13 234.67, 308.27 256.67, 316.40 242.00 C 324.53 227.33, 332.67 139.33, 340.80 132.00 C 348.93 124.67, 357.07 198.00, 365.20 198.00 C 373.33 198.00, 381.47 139.33, 389.60 132.00 C 397.73 124.67, 405.87 157.67, 414.00 154.00 C 422.13 150.33, 430.27 110.00, 438.40 110.00 C 446.53 110.00, 454.67 154.00, 462.80 154.00 C 470.93 154.00, 479.07 102.67, 487.20 110.00 C 495.33 117.33, 503.47 183.33, 511.60 198.00 C 519.73 212.67, 527.87 205.33, 536.00 198.00 C 544.13 190.67, 552.27 157.67, 560.40 154.00 C 568.53 150.33, 576.67 176.00, 584.80 176.00 C 592.93 176.00, 601.07 150.33, 609.20 154.00 C 617.33 157.67, 625.47 190.67, 633.60 198.00 C 641.73 205.33, 649.87 209.00, 658.00 198.00 C 666.13 187.00, 674.27 146.67, 682.40 132.00 C 690.53 117.33, 698.67 102.67, 706.80 110.00 C 714.93 117.33, 723.07 168.67, 731.20 176.00 C 739.33 183.33, 747.47 157.67, 755.60 154.00 C 763.73 150.33, 775.93 154.00, 780.00 154.00 L 780.00 242.00 L 48.00 242.00 Z" fill="url(#areaFill)"/>
  <path d="M 48.00 176.00 C 52.07 179.67, 64.27 198.00, 72.40 198.00 C 80.53 198.00, 88.67 187.00, 96.80 176.00 C 104.93 165.00, 113.07 121.00, 121.20 132.00 C 129.33 143.00, 137.47 234.67, 145.60 242.00 C 153.73 249.33, 161.87 190.67, 170.00 176.00 C 178.13 161.33, 186.27 157.67, 194.40 154.00 C 202.53 150.33, 210.67 168.67, 218.80 154.00 C 226.93 139.33, 235.07 66.00, 243.20 66.00 C 251.33 66.00, 259.47 128.33, 267.60 154.00 C 275.73 179.67, 283.87 205.33, 292.00 220.00 C 300.13 234.67, 308.27 256.67, 316.40 242.00 C 324.53 227.33, 332.67 139.33, 340.80 132.00 C 348.93 124.67, 357.07 198.00, 365.20 198.00 C 373.33 198.00, 381.47 139.33, 389.60 132.00 C 397.73 124.67, 405.87 157.67, 414.00 154.00 C 422.13 150.33, 430.27 110.00, 438.40 110.00 C 446.53 110.00, 454.67 154.00, 462.80 154.00 C 470.93 154.00, 479.07 102.67, 487.20 110.00 C 495.33 117.33, 503.47 183.33, 511.60 198.00 C 519.73 212.67, 527.87 205.33, 536.00 198.00 C 544.13 190.67, 552.27 157.67, 560.40 154.00 C 568.53 150.33, 576.67 176.00, 584.80 176.00 C 592.93 176.00, 601.07 150.33, 609.20 154.00 C 617.33 157.67, 625.47 190.67, 633.60 198.00 C 641.73 205.33, 649.87 209.00, 658.00 198.00 C 666.13 187.00, 674.27 146.67, 682.40 132.00 C 690.53 117.33, 698.67 102.67, 706.80 110.00 C 714.93 117.33, 723.07 168.67, 731.20 176.00 C 739.33 183.33, 747.47 157.67, 755.60 154.00 C 763.73 150.33, 775.93 154.00, 780.00 154.00" fill="none" stroke="#38bdf8" stroke-width="2.5" stroke-linejoin="round" stroke-linecap="round"/>
  <circle cx="48.0" cy="176.0" r="2.6" fill="#1a1b27" stroke="#38bdf8" stroke-width="1.6"><title>2026-08-19: 3</title></circle>
    <circle cx="72.4" cy="198.0" r="2.6" fill="#1a1b27" stroke="#38bdf8" stroke-width="1.6"><title>2026-08-20: 2</title></circle>
    <circle cx="96.8" cy="176.0" r="2.6" fill="#1a1b27" stroke="#38bdf8" stroke-width="1.6"><title>2026-08-21: 3</title></circle>
    <circle cx="121.2" cy="132.0" r="2.6" fill="#1a1b27" stroke="#38bdf8" stroke-width="1.6"><title>2026-08-22: 5</title></circle>
    <circle cx="145.6" cy="242.0" r="2.6" fill="#1a1b27" stroke="#38bdf8" stroke-width="1.6"><title>2026-08-23: 0</title></circle>
    <circle cx="170.0" cy="176.0" r="2.6" fill="#1a1b27" stroke="#38bdf8" stroke-width="1.6"><title>2026-08-24: 3</title></circle>
    <circle cx="194.4" cy="154.0" r="2.6" fill="#1a1b27" stroke="#38bdf8" stroke-width="1.6"><title>2026-08-25: 4</title></circle>
    <circle cx="218.8" cy="154.0" r="2.6" fill="#1a1b27" stroke="#38bdf8" stroke-width="1.6"><title>2026-08-26: 4</title></circle>
    <circle cx="243.2" cy="66.0" r="2.6" fill="#1a1b27" stroke="#38bdf8" stroke-width="1.6"><title>2026-08-27: 8</title></circle>
    <circle cx="267.6" cy="154.0" r="2.6" fill="#1a1b27" stroke="#38bdf8" stroke-width="1.6"><title>2026-08-28: 4</title></circle>
    <circle cx="292.0" cy="220.0" r="2.6" fill="#1a1b27" stroke="#38bdf8" stroke-width="1.6"><title>2026-08-29: 1</title></circle>
    <circle cx="316.4" cy="242.0" r="2.6" fill="#1a1b27" stroke="#38bdf8" stroke-width="1.6"><title>2026-08-30: 0</title></circle>
    <circle cx="340.8" cy="132.0" r="2.6" fill="#1a1b27" stroke="#38bdf8" stroke-width="1.6"><title>2026-08-31: 5</title></circle>
    <circle cx="365.2" cy="198.0" r="2.6" fill="#1a1b27" stroke="#38bdf8" stroke-width="1.6"><title>2026-09-01: 2</title></circle>
    <circle cx="389.6" cy="132.0" r="2.6" fill="#1a1b27" stroke="#38bdf8" stroke-width="1.6"><title>2026-09-02: 5</title></circle>
    <circle cx="414.0" cy="154.0" r="2.6" fill="#1a1b27" stroke="#38bdf8" stroke-width="1.6"><title>2026-09-03: 4</title></circle>
    <circle cx="438.4" cy="110.0" r="2.6" fill="#1a1b27" stroke="#38bdf8" stroke-width="1.6"><title>2026-09-04: 6</title></circle>
    <circle cx="462.8" cy="154.0" r="2.6" fill="#1a1b27" stroke="#38bdf8" stroke-width="1.6"><title>2026-09-05: 4</title></circle>
    <circle cx="487.2" cy="110.0" r="2.6" fill="#1a1b27" stroke="#38bdf8" stroke-width="1.6"><title>2026-09-06: 6</title></circle>
    <circle cx="511.6" cy="198.0" r="2.6" fill="#1a1b27" stroke="#38bdf8" stroke-width="1.6"><title>2026-09-07: 2</title></circle>
    <circle cx="536.0" cy="198.0" r="2.6" fill="#1a1b27" stroke="#38bdf8" stroke-width="1.6"><title>2026-09-08: 2</title></circle>
    <circle cx="560.4" cy="154.0" r="2.6" fill="#1a1b27" stroke="#38bdf8" stroke-width="1.6"><title>2026-09-09: 4</title></circle>
    <circle cx="584.8" cy="176.0" r="2.6" fill="#1a1b27" stroke="#38bdf8" stroke-width="1.6"><title>2026-09-10: 3</title></circle>
    <circle cx="609.2" cy="154.0" r="2.6" fill="#1a1b27" stroke="#38bdf8" stroke-width="1.6"><title>2026-09-11: 4</title></circle>
    <circle cx="633.6" cy="198.0" r="2.6" fill="#1a1b27" stroke="#38bdf8" stroke-width="1.6"><title>2026-09-12: 2</title></circle>
    <circle cx="658.0" cy="198.0" r="2.6" fill="#1a1b27" stroke="#38bdf8" stroke-width="1.6"><title>2026-09-13: 2</title></circle>
    <circle cx="682.4" cy="132.0" r="2.6" fill="#1a1b27" stroke="#38bdf8" stroke-width="1.6"><title>2026-09-14: 5</title></circle>
    <circle cx="706.8" cy="110.0" r="2.6" fill="#1a1b27" stroke="#38bdf8" stroke-width="1.6"><title>2026-09-15: 6</title></circle>
    <circle cx="731.2" cy="176.0" r="2.6" fill="#1a1b27" stroke="#38bdf8" stroke-width="1.6"><title>2026-09-16: 3</title></circle>
    <circle cx="755.6" cy="154.0" r="2.6" fill="#1a1b27" stroke="#38bdf8" stroke-width="1.6"><title>2026-09-17: 4</title></circle>
    <circle cx="780.0" cy="154.0" r="2.6" fill="#1a1b27" stroke="#38bdf8" stroke-width="1.6"><title>2026-09-18: 4</title></circle>
  <text x="48" y="266" font-family="-apple-system,BlinkMacSystemFont,'Segoe UI',Helvetica,Arial,sans-serif" font-size="10" fill="#7a7f99">Aug 19, 2026</text>
  <text x="400" y="266" text-anchor="middle" font-family="-apple-system,BlinkMacSystemFont,'Segoe UI',Helvetica,Arial,sans-serif" font-size="10" fill="#7a7f99">Sep 3, 2026</text>
  <text x="780" y="266" text-anchor="end" font-family="-apple-system,BlinkMacSystemFont,'Segoe UI',Helvetica,Arial,sans-serif" font-size="10" fill="#7a7f99">Sep 18, 2026</text>
</svg>
